<svg version="1.1" xmlns="http://www.w3.org/2000/svg" viewBox="0 0 368.1744936112236 367.58135591646965" width="368.1744936112236" height="367.58135591646965">
  <!-- svg-source:excalidraw -->
  
  <defs>
    <style>
      @font-face {
        font-family: "Virgil";
        src: url("https://excalidraw.com/Virgil.woff2");
      }
      @font-face {
        font-family: "Cascadia";
        src: url("https://excalidraw.com/Cascadia.woff2");
      }
    </style>
  </defs>
  <rect x="0" y="0" width="368.1744936112236" height="367.58135591646965" fill="#ffffff"></rect><g stroke-linecap="round" transform="translate(198.30001831054688 143.5812948813134) rotate(0 77.5 26.5)"><path d="M3.8 3.96 C44.37 3.83, 86.49 5.46, 156.03 1.03 M-0.53 0.61 C51.26 2.55, 103.59 3.44, 154.04 -1.24 M151.01 -1.68 C154.33 16.34, 154.15 35.58, 152.62 55.49 M154.11 -0.54 C155.4 13.41, 157.36 27.88, 155.7 51.97 M153.36 52.88 C118.15 57.05, 83.05 50.32, 2.37 52.81 M156.51 52.41 C99.95 56.32, 43.39 53.97, 0.29 54.09 M3.15 50.84 C2.65 31.51, 3.62 17.12, -2.26 0.79 M-1.31 51.54 C1.87 34.63, 2.03 14.03, 0.86 1.78" stroke="#00c917" stroke-width="1" fill="none"></path></g><g transform="translate(203.30001831054688 159.0812948813134) rotate(0 72.5 11)"><text x="72.5" y="15" font-family="Virgil, Segoe UI Emoji" font-size="17.483100698911205px" fill="#00c917" text-anchor="middle" style="white-space: pre;" direction="ltr">YAML</text></g><g stroke-linecap="round" transform="translate(17.646426560805367 140.19373576800115) rotate(0 76.5 26.5)"><path d="M-1.91 -2.48 C44.47 -2.54, 84.1 -4.62, 151.32 -0.16 M-1.19 1.24 C34.98 3.62, 71.43 0.94, 152.46 -0.55 M154.4 -2.06 C151.52 18.58, 154.01 28.16, 152.88 54.04 M154.19 -0.09 C155.2 19.39, 155.06 43.52, 152.41 53.67 M153.59 55.18 C97.16 52.33, 38.79 55.15, -2.16 55.73 M151.87 53.39 C114.15 54.27, 74.19 54.71, -1.46 53.94 M1.72 56.56 C-0.05 37.17, -3.67 17.88, -3.13 2.88 M-1.51 53.57 C-1.07 38.58, -0.02 20.38, 0.05 1.92" stroke="#e67700" stroke-width="1" fill="none"></path></g><g transform="translate(22.646426560805367 155.69373576800115) rotate(0 71.5 11)"><text x="71.5" y="15" font-family="Virgil, Segoe UI Emoji" font-size="17.48246562659448px" fill="#e67700" text-anchor="middle" style="white-space: pre;" direction="ltr">API</text></g><g stroke-linecap="round" transform="translate(18.008386069022777 206.64419663613637) rotate(0 77.5 30.5)"><path d="M2.49 -1.6 C48.77 1.58, 88.59 0.76, 153.89 -0.75 M-1.03 -1.11 C59.24 -0.96, 113.98 -1.15, 155.52 1.93 M154.81 2.38 C150.89 26.23, 157.15 47.09, 156.34 64.39 M156.09 1.52 C154.76 19.52, 156.18 34.42, 156.37 60.21 M155.79 63.04 C90.64 61.13, 30.64 56.32, 1.88 61.48 M156.78 61.27 C100.31 60.79, 43.9 60.77, 1.44 60.8 M1.15 60.54 C2.2 39.51, -3.48 14.85, 3.84 -3.69 M0.58 61.84 C-1.92 43.81, -2.25 29.23, 0.38 1.67" stroke="#00a513" stroke-width="1" fill="none"></path></g><g transform="translate(23.008386069022777 215.14419663613637) rotate(0 72.5 22)"><text x="72.5" y="15" font-family="Virgil, Segoe UI Emoji" font-size="17.71426702220021px" fill="#00a513" text-anchor="middle" style="white-space: pre;" direction="ltr">Database - </text><text x="72.5" y="37" font-family="Virgil, Segoe UI Emoji" font-size="17.71426702220021px" fill="#00a513" text-anchor="middle" style="white-space: pre;" direction="ltr">SQL, NoSQL</text></g><g stroke-linecap="round" transform="translate(200.44992546178685 77.78588602091236) rotate(0 76.49999999999994 26)"><path d="M2.88 -0.4 C37.27 1.38, 65.18 3.54, 152.54 1.89 M1.92 -1.84 C51.52 1.26, 103.53 0.5, 153.84 -1.1 M153.76 3.34 C150.11 11.29, 155.88 27.55, 154.81 53.98 M154.74 -1.49 C154.31 14.95, 154.44 28.81, 152.65 50.2 M149.43 51.58 C105.8 49.26, 64.14 50.57, -3.91 52.28 M152.26 52.25 C96.34 49.29, 35.09 50.71, 0.11 50.3 M-1.74 48.69 C0.33 34.44, 2.62 15.82, -2.58 -0.76 M-1.67 53.98 C1.58 36.57, 0.42 18.84, 0.84 0.63" stroke="#d800bb" stroke-width="1" fill="none"></path></g><g transform="translate(205.44992546178685 92.78588602091236) rotate(0 71.49999999999994 11)"><text x="71.5" y="15" font-family="Virgil, Segoe UI Emoji" font-size="17.71426702220021px" fill="#d800bb" text-anchor="middle" style="white-space: pre;" direction="ltr">Markdown</text></g><g stroke-linecap="round" transform="translate(194.17449361122362 214.37032127534462) rotate(0 82 28)"><path d="M-0.76 0.52 C52.99 0.18, 110.5 6.08, 165.12 1.7 M0.63 -0.99 C42.34 -0.5, 87.64 -2.37, 164.21 0.31 M164.78 3.93 C162.35 22.68, 163.33 47.01, 163.56 57.01 M163.78 1.44 C165.24 17.73, 161.79 32.73, 163.55 57.37 M162.76 59.44 C118.49 58.66, 64.52 58.25, 3.59 56.22 M163.24 57.34 C113.35 56.58, 62.92 52.97, -0.61 54.92 M3.5 53.86 C3.34 37.86, -1.9 13.4, -0.4 1.3 M-0.86 56.19 C2.71 35.7, 1.11 17.4, -0.31 -1.01" stroke="#0026ff" stroke-width="1" fill="none"></path></g><g transform="translate(199.17449361122362 231.37032127534462) rotate(0 77 11)"><text x="77" y="15" font-family="Virgil, Segoe UI Emoji" font-size="17.71426702220021px" fill="#0026ff" text-anchor="middle" style="white-space: pre;" direction="ltr">CSV</text></g><g stroke-linecap="round" transform="translate(196.54906861799964 286.84218141468796) rotate(0 80 33.5)"><path d="M-1.26 -0.23 C38.42 -0.47, 78.78 -4.68, 163.05 -3.07 M1.88 -1.46 C63.99 1.41, 125.31 0.04, 159.06 0.06 M163.7 2.71 C156.18 14.69, 163.9 30.97, 157.37 67.29 M159.61 -0.69 C162.52 21.19, 161.65 44.34, 161.52 68.81 M161.26 63.21 C104.7 63.66, 59.62 68.59, -1.56 67.76 M159.33 65.54 C100.09 69.49, 43.38 71.3, 0.1 65.89 M2.82 67.34 C-3.26 52.95, -0.28 30.33, 3.83 0.97 M-1.49 66.86 C2.36 49.94, 2.45 32.19, 1.27 -0.48" stroke="#c92a2a" stroke-width="1" fill="none"></path></g><g transform="translate(201.54906861799964 309.34218141468796) rotate(0 75 11)"><text x="75" y="15" font-family="Virgil, Segoe UI Emoji" font-size="17.71426702220021px" fill="#c92a2a" text-anchor="middle" style="white-space: pre;" direction="ltr">JSON</text></g><g stroke-linecap="round" transform="translate(12.163485090665745 10) rotate(0 170.5 27)"><path d="M-1.98 -0.18 C88.96 -0.79, 176.42 -1.57, 342.69 -0.64 M1.03 -0.45 C101.21 -4.39, 205.03 -2.04, 340.31 1.18 M341.09 -3.9 C342.95 10.59, 337.33 25.1, 339.47 55.59 M342.81 1.31 C338.97 16.21, 342.33 32.88, 340.69 55.79 M341.78 52.37 C206.22 51.91, 71.59 51.71, 0.23 54.66 M339.72 52.74 C222.67 53.11, 103.99 54.13, -1.1 53.03 M-2.5 50.73 C3.4 33.96, -3.5 13.57, -2.99 1.52 M1.15 54.14 C1.46 34.82, 1.5 13.32, 1.82 -1.26" stroke="#c92a2a" stroke-width="1" fill="none"></path></g><g transform="translate(17.163485090665745 26) rotate(0 165.5 11)"><text x="165.5" y="15" font-family="Virgil, Segoe UI Emoji" font-size="17.71426702220021px" fill="#c92a2a" text-anchor="middle" style="white-space: pre;" direction="ltr">...anything you can write code for!</text></g><g stroke-linecap="round" transform="translate(19.400146484375 281.58135591646965) rotate(0 79 38)"><path d="M2.79 -1.57 C38.85 -1.66, 75.73 -3.25, 155.95 -3.69 M-1.28 -1.81 C40.83 0.52, 79.88 0.46, 158.19 -0.16 M161.12 3.45 C162.26 14.52, 159.77 31.01, 161.31 77.95 M157.59 0.86 C158.6 20.66, 158.36 41.09, 156.58 77.64 M158.28 75.27 C95.94 75.47, 38.84 77.06, -1.41 77.23 M156.34 76.14 C102.9 74.94, 50.35 74.81, 1.56 77.04 M-0.96 73.25 C3.89 54.25, 3.87 34.74, 2.63 2.72 M0.38 76.72 C2.52 49.49, 1.87 25.33, -0.61 -1.71" stroke="#ff1cac" stroke-width="1" fill="none"></path></g><g transform="translate(24.400146484375 286.58135591646965) rotate(0 74 33)"><text x="74" y="15" font-family="Virgil, Segoe UI Emoji" font-size="17.71426702220021px" fill="#ff1cac" text-anchor="middle" style="white-space: pre;" direction="ltr">Headless CMS - </text><text x="74" y="37" font-family="Virgil, Segoe UI Emoji" font-size="17.71426702220021px" fill="#ff1cac" text-anchor="middle" style="white-space: pre;" direction="ltr">Netlify, Forestry,</text><text x="74" y="59" font-family="Virgil, Segoe UI Emoji" font-size="17.71426702220021px" fill="#ff1cac" text-anchor="middle" style="white-space: pre;" direction="ltr">Strapi...</text></g><g stroke-linecap="round" transform="translate(10 75.78139864107902) rotate(0 80.5 25)"><path d="M3.12 3.45 C37.93 -4.22, 70.49 -4.27, 164.31 1.95 M-0.41 0.86 C44.03 2.93, 88.08 2.45, 159.58 1.64 M161.28 -0.73 C159.54 15.76, 163.34 36.63, 159.59 51.23 M159.34 0.14 C159.34 15.37, 161.17 32.45, 162.56 51.04 M160.04 47.25 C123.41 47.78, 82.59 47.53, 2.63 52.72 M161.38 50.72 C106.56 49.26, 50.22 51.39, -0.61 48.29 M3.09 53.08 C0.57 35.28, 3.48 27.78, -2.29 -3.24 M0.52 49.31 C-0.13 36.77, -1.64 22.84, 1.46 -0.14" stroke="#00cbe0" stroke-width="1" fill="none"></path></g><g transform="translate(15 89.78139864107902) rotate(0 75.5 11)"><text x="75.5" y="15" font-family="Virgil, Segoe UI Emoji" font-size="17.71426702220021px" fill="#00cbe0" text-anchor="middle" style="white-space: pre;" direction="ltr">CMS</text></g></svg>