<svg id="visual" viewBox="0 0 900 600" width="900" height="600" xmlns="http://www.w3.org/2000/svg" xmlns:xlink="http://www.w3.org/1999/xlink" version="1.1"><rect x="0" y="0" width="900" height="600" fill="#001220"></rect><defs><linearGradient id="grad1_0" x1="33.3%" y1="0%" x2="100%" y2="100%"><stop offset="20%" stop-color="#fbae3c" stop-opacity="1"></stop><stop offset="80%" stop-color="#fbae3c" stop-opacity="1"></stop></linearGradient></defs><defs><linearGradient id="grad1_1" x1="33.3%" y1="0%" x2="100%" y2="100%"><stop offset="20%" stop-color="#fbae3c" stop-opacity="1"></stop><stop offset="80%" stop-color="#e1685e" stop-opacity="1"></stop></linearGradient></defs><defs><linearGradient id="grad1_2" x1="33.3%" y1="0%" x2="100%" y2="100%"><stop offset="20%" stop-color="#96446e" stop-opacity="1"></stop><stop offset="80%" stop-color="#e1685e" stop-opacity="1"></stop></linearGradient></defs><defs><linearGradient id="grad1_3" x1="33.3%" y1="0%" x2="100%" y2="100%"><stop offset="20%" stop-color="#96446e" stop-opacity="1"></stop><stop offset="80%" stop-color="#3d3056" stop-opacity="1"></stop></linearGradient></defs><defs><linearGradient id="grad1_4" x1="33.3%" y1="0%" x2="100%" y2="100%"><stop offset="20%" stop-color="#001220" stop-opacity="1"></stop><stop offset="80%" stop-color="#3d3056" stop-opacity="1"></stop></linearGradient></defs><defs><linearGradient id="grad2_0" x1="0%" y1="0%" x2="66.7%" y2="100%"><stop offset="20%" stop-color="#fbae3c" stop-opacity="1"></stop><stop offset="80%" stop-color="#fbae3c" stop-opacity="1"></stop></linearGradient></defs><defs><linearGradient id="grad2_1" x1="0%" y1="0%" x2="66.7%" y2="100%"><stop offset="20%" stop-color="#e1685e" stop-opacity="1"></stop><stop offset="80%" stop-color="#fbae3c" stop-opacity="1"></stop></linearGradient></defs><defs><linearGradient id="grad2_2" x1="0%" y1="0%" x2="66.7%" y2="100%"><stop offset="20%" stop-color="#e1685e" stop-opacity="1"></stop><stop offset="80%" stop-color="#96446e" stop-opacity="1"></stop></linearGradient></defs><defs><linearGradient id="grad2_3" x1="0%" y1="0%" x2="66.7%" y2="100%"><stop offset="20%" stop-color="#3d3056" stop-opacity="1"></stop><stop offset="80%" stop-color="#96446e" stop-opacity="1"></stop></linearGradient></defs><defs><linearGradient id="grad2_4" x1="0%" y1="0%" x2="66.7%" y2="100%"><stop offset="20%" stop-color="#3d3056" stop-opacity="1"></stop><stop offset="80%" stop-color="#001220" stop-opacity="1"></stop></linearGradient></defs><g transform="translate(900, 0)"><path d="M0 486.7C-44.2 433.7 -88.4 380.7 -151.2 364.9C-213.9 349.2 -295.1 370.7 -344.2 344.2C-393.3 317.6 -410.3 242.9 -428.7 177.6C-447.1 112.2 -466.9 56.1 -486.7 0L0 0Z" fill="#18223c"></path><path d="M0 389.4C-35.4 347 -70.8 304.5 -120.9 291.9C-171.1 279.4 -236.1 296.6 -275.3 275.3C-314.6 254.1 -328.2 194.4 -342.9 142.1C-357.7 89.7 -373.5 44.9 -389.4 0L0 0Z" fill="#683a67"></path><path d="M0 292C-26.5 260.2 -53.1 228.4 -90.7 219C-128.3 209.5 -177.1 222.4 -206.5 206.5C-236 190.6 -246.2 145.8 -257.2 106.5C-268.3 67.3 -280.2 33.7 -292 0L0 0Z" fill="#c0526a"></path><path d="M0 194.7C-17.7 173.5 -35.4 152.3 -60.5 146C-85.6 139.7 -118 148.3 -137.7 137.7C-157.3 127 -164.1 97.2 -171.5 71C-178.8 44.9 -186.8 22.4 -194.7 0L0 0Z" fill="#f6884d"></path><path d="M0 97.3C-8.8 86.7 -17.7 76.1 -30.2 73C-42.8 69.8 -59 74.1 -68.8 68.8C-78.7 63.5 -82.1 48.6 -85.7 35.5C-89.4 22.4 -93.4 11.2 -97.3 0L0 0Z" fill="#fbae3c"></path></g><g transform="translate(0, 600)"><path d="M0 -486.7C52.4 -458.4 104.8 -430.1 171.1 -413C237.3 -395.9 317.4 -389.9 344.2 -344.2C371 -298.4 344.5 -212.9 359.4 -148.9C374.3 -84.9 430.5 -42.4 486.7 0L0 0Z" fill="#18223c"></path><path d="M0 -389.4C41.9 -366.7 83.9 -344.1 136.8 -330.4C189.8 -316.7 253.9 -311.9 275.3 -275.3C296.8 -238.7 275.6 -170.3 287.5 -119.1C299.4 -67.9 344.4 -33.9 389.4 0L0 0Z" fill="#683a67"></path><path d="M0 -292C31.4 -275.1 62.9 -258.1 102.6 -247.8C142.4 -237.5 190.4 -234 206.5 -206.5C222.6 -179.1 206.7 -127.7 215.6 -89.3C224.6 -50.9 258.3 -25.5 292 0L0 0Z" fill="#c0526a"></path><path d="M0 -194.7C21 -183.4 41.9 -172 68.4 -165.2C94.9 -158.3 127 -156 137.7 -137.7C148.4 -119.4 137.8 -85.1 143.8 -59.5C149.7 -33.9 172.2 -17 194.7 0L0 0Z" fill="#f6884d"></path><path d="M0 -97.3C10.5 -91.7 21 -86 34.2 -82.6C47.5 -79.2 63.5 -78 68.8 -68.8C74.2 -59.7 68.9 -42.6 71.9 -29.8C74.9 -17 86.1 -8.5 97.3 0L0 0Z" fill="#fbae3c"></path></g></svg>