<svg id="visual" viewBox="0 0 900 600" width="900" height="600" xmlns="http://www.w3.org/2000/svg" xmlns:xlink="http://www.w3.org/1999/xlink" version="1.1"><rect x="0" y="0" width="900" height="600" fill="#CCCCCC"></rect><path d="M0 390L21.5 391.3C43 392.7 86 395.3 128.8 392.7C171.7 390 214.3 382 257.2 384.8C300 387.7 343 401.3 385.8 405.8C428.7 410.3 471.3 405.7 514.2 402C557 398.3 600 395.7 642.8 396C685.7 396.3 728.3 399.7 771.2 400.7C814 401.7 857 400.3 878.5 399.7L900 399L900 601L878.5 601C857 601 814 601 771.2 601C728.3 601 685.7 601 642.8 601C600 601 557 601 514.2 601C471.3 601 428.7 601 385.8 601C343 601 300 601 257.2 601C214.3 601 171.7 601 128.8 601C86 601 43 601 21.5 601L0 601Z" fill="#cdb3b1"></path><path d="M0 437L21.5 433.8C43 430.7 86 424.3 128.8 420.5C171.7 416.7 214.3 415.3 257.2 419.7C300 424 343 434 385.8 434C428.7 434 471.3 424 514.2 425.8C557 427.7 600 441.3 642.8 441.7C685.7 442 728.3 429 771.2 425.5C814 422 857 428 878.5 431L900 434L900 601L878.5 601C857 601 814 601 771.2 601C728.3 601 685.7 601 642.8 601C600 601 557 601 514.2 601C471.3 601 428.7 601 385.8 601C343 601 300 601 257.2 601C214.3 601 171.7 601 128.8 601C86 601 43 601 21.5 601L0 601Z" fill="#ab9b90"></path><path d="M0 487L21.5 482.5C43 478 86 469 128.8 466.5C171.7 464 214.3 468 257.2 464.3C300 460.7 343 449.3 385.8 449.8C428.7 450.3 471.3 462.7 514.2 467.3C557 472 600 469 642.8 471.5C685.7 474 728.3 482 771.2 477.2C814 472.3 857 454.7 878.5 445.8L900 437L900 601L878.5 601C857 601 814 601 771.2 601C728.3 601 685.7 601 642.8 601C600 601 557 601 514.2 601C471.3 601 428.7 601 385.8 601C343 601 300 601 257.2 601C214.3 601 171.7 601 128.8 601C86 601 43 601 21.5 601L0 601Z" fill="#868577"></path><path d="M0 522L21.5 515.3C43 508.7 86 495.3 128.8 498.5C171.7 501.7 214.3 521.3 257.2 530.7C300 540 343 539 385.8 538.5C428.7 538 471.3 538 514.2 533.8C557 529.7 600 521.3 642.8 517.2C685.7 513 728.3 513 771.2 511C814 509 857 505 878.5 503L900 501L900 601L878.5 601C857 601 814 601 771.2 601C728.3 601 685.7 601 642.8 601C600 601 557 601 514.2 601C471.3 601 428.7 601 385.8 601C343 601 300 601 257.2 601C214.3 601 171.7 601 128.8 601C86 601 43 601 21.5 601L0 601Z" fill="#646e65"></path><path d="M0 568L21.5 560.7C43 553.3 86 538.7 128.8 537.5C171.7 536.3 214.3 548.7 257.2 550.2C300 551.7 343 542.3 385.8 541C428.7 539.7 471.3 546.3 514.2 548.3C557 550.3 600 547.7 642.8 548.8C685.7 550 728.3 555 771.2 556.2C814 557.3 857 554.7 878.5 553.3L900 552L900 601L878.5 601C857 601 814 601 771.2 601C728.3 601 685.7 601 642.8 601C600 601 557 601 514.2 601C471.3 601 428.7 601 385.8 601C343 601 300 601 257.2 601C214.3 601 171.7 601 128.8 601C86 601 43 601 21.5 601L0 601Z" fill="#495654"></path></svg>